<svg width="44" height="44" viewBox="0 0 44 44" fill="none" xmlns="http://www.w3.org/2000/svg">
<path d="M1.5 22C1.5 33.3218 10.6782 42.5 22 42.5C33.3218 42.5 42.5 33.3218 42.5 22C42.5 10.6782 33.3218 1.5 22 1.5C10.6782 1.5 1.5 10.6782 1.5 22Z" fill="#E8E8E8"/>
<path d="M1.5 22C1.5 33.3218 10.6782 42.5 22 42.5C33.3218 42.5 42.5 33.3218 42.5 22C42.5 10.6782 33.3218 1.5 22 1.5C10.6782 1.5 1.5 10.6782 1.5 22Z" stroke="#002D72" stroke-width="1.07143"/>
<path fill-rule="evenodd" clip-rule="evenodd" d="M17.9596 30.7071C18.3501 31.0976 18.9833 31.0976 19.3738 30.7071L27.3738 22.7071C27.7643 22.3166 27.7643 21.6834 27.3738 21.2929L19.3738 13.2929C18.9833 12.9024 18.3501 12.9024 17.9596 13.2929C17.5691 13.6834 17.5691 14.3166 17.9596 14.7071L25.2525 22L17.9596 29.2929C17.5691 29.6834 17.5691 30.3166 17.9596 30.7071Z" fill="#002D72"/>
</svg>
