<svg width="87" height="86" viewBox="0 0 87 86" fill="none" xmlns="http://www.w3.org/2000/svg">
<path fill-rule="evenodd" clip-rule="evenodd" d="M24.2005 35.3205C25.0515 34.8098 26.1148 34.8098 26.9659 35.3205L44.8826 46.0705C45.692 46.5562 46.1873 47.431 46.1873 48.375V69.875C46.1873 70.819 45.692 71.6938 44.8826 72.1795L26.9659 82.9295C26.1148 83.4402 25.0515 83.4402 24.2005 82.9295L6.2838 72.1795C5.47431 71.6938 4.979 70.819 4.979 69.875V48.375C4.979 47.431 5.47431 46.5562 6.2838 46.0705L24.2005 35.3205ZM10.354 49.8966V68.3534L25.5832 77.4909L40.8123 68.3534V49.8966L25.5832 40.7591L10.354 49.8966Z" fill="#18191A"/>
<path fill-rule="evenodd" clip-rule="evenodd" d="M60.034 35.3205C60.885 34.8098 61.9483 34.8098 62.7994 35.3205L80.716 46.0705C81.5255 46.5562 82.0208 47.431 82.0208 48.375V69.875C82.0208 70.819 81.5255 71.6938 80.716 72.1795L62.7994 82.9295C61.9483 83.4402 60.885 83.4402 60.034 82.9295L42.1173 72.1795C41.3078 71.6938 40.8125 70.819 40.8125 69.875V48.375C40.8125 47.431 41.3078 46.5562 42.1173 46.0705L60.034 35.3205ZM46.1875 49.8966V68.3534L61.4167 77.4909L76.6458 68.3534V49.8966L61.4167 40.7591L46.1875 49.8966Z" fill="#18191A"/>
<path fill-rule="evenodd" clip-rule="evenodd" d="M42.1175 3.07049C42.9685 2.55984 44.0318 2.55984 44.8829 3.07049L62.7995 13.8205C63.609 14.3062 64.1043 15.181 64.1043 16.125V37.625C64.1043 38.569 63.609 39.4438 62.7995 39.9295L44.8829 50.6795C44.0318 51.1902 42.9685 51.1902 42.1175 50.6795L24.2008 39.9295C23.3913 39.4438 22.896 38.569 22.896 37.625V16.125C22.896 15.181 23.3913 14.3062 24.2008 13.8205L42.1175 3.07049ZM28.271 17.6466V36.1034L43.5002 45.2409L58.7293 36.1034V17.6466L43.5002 8.50914L28.271 17.6466Z" fill="#18191A"/>
</svg>
