<svg width="40" height="40" viewBox="0 0 40 40" fill="none" xmlns="http://www.w3.org/2000/svg">
<path fill-rule="evenodd" clip-rule="evenodd" d="M10.7827 10.7826C11.2709 10.2945 12.0624 10.2945 12.5505 10.7826L29.2172 27.4493C29.7053 27.9374 29.7053 28.7289 29.2172 29.2171C28.729 29.7052 27.9376 29.7052 27.4494 29.2171L10.7827 12.5504C10.2946 12.0622 10.2946 11.2708 10.7827 10.7826Z" fill="#18191A"/>
<path fill-rule="evenodd" clip-rule="evenodd" d="M29.2172 10.7826C29.7053 11.2708 29.7053 12.0622 29.2172 12.5504L12.5505 29.2171C12.0624 29.7052 11.2709 29.7052 10.7827 29.2171C10.2946 28.7289 10.2946 27.9374 10.7827 27.4493L27.4494 10.7826C27.9376 10.2945 28.729 10.2945 29.2172 10.7826Z" fill="#18191A"/>
</svg>
