<svg width="16" height="16" viewBox="0 0 16 16" fill="none" xmlns="http://www.w3.org/2000/svg">
<rect width="16" height="16" rx="8" fill="#E8E8E8"/>
<path fill-rule="evenodd" clip-rule="evenodd" d="M4.3131 4.31319C4.50837 4.11793 4.82495 4.11793 5.02021 4.31319L11.6869 10.9799C11.8821 11.1751 11.8821 11.4917 11.6869 11.687C11.4916 11.8822 11.175 11.8822 10.9798 11.687L4.3131 5.0203C4.11784 4.82504 4.11784 4.50846 4.3131 4.31319Z" fill="#616161"/>
<path fill-rule="evenodd" clip-rule="evenodd" d="M11.6869 4.31319C11.8821 4.50846 11.8821 4.82504 11.6869 5.0203L5.02021 11.687C4.82495 11.8822 4.50837 11.8822 4.3131 11.687C4.11784 11.4917 4.11784 11.1751 4.3131 10.9799L10.9798 4.31319C11.175 4.11793 11.4916 4.11793 11.6869 4.31319Z" fill="#616161"/>
</svg>
