<svg width="32" height="32" viewBox="0 0 32 32" fill="none" xmlns="http://www.w3.org/2000/svg">
<path fill-rule="evenodd" clip-rule="evenodd" d="M2.99994 16C2.99994 15.4477 3.44765 15 3.99994 15H27.9999C28.5522 15 28.9999 15.4477 28.9999 16C28.9999 16.5523 28.5522 17 27.9999 17H3.99994C3.44765 17 2.99994 16.5523 2.99994 16Z" fill="white"/>
<path fill-rule="evenodd" clip-rule="evenodd" d="M19.2929 7.29289C19.6834 6.90237 20.3166 6.90237 20.7071 7.29289L28.7071 15.2929C29.0976 15.6834 29.0976 16.3166 28.7071 16.7071L20.7071 24.7071C20.3166 25.0976 19.6834 25.0976 19.2929 24.7071C18.9024 24.3166 18.9024 23.6834 19.2929 23.2929L26.5858 16L19.2929 8.70711C18.9024 8.31658 18.9024 7.68342 19.2929 7.29289Z" fill="white"/>
</svg>
