<svg width="40" height="40" viewBox="0 0 40 40" fill="none" xmlns="http://www.w3.org/2000/svg">
<path fill-rule="evenodd" clip-rule="evenodd" d="M5.37476 9.95825C5.37476 9.2679 5.9344 8.70825 6.62476 8.70825H33.2914C33.9818 8.70825 34.5414 9.2679 34.5414 9.95825C34.5414 10.6486 33.9818 11.2083 33.2914 11.2083H6.62476C5.9344 11.2083 5.37476 10.6486 5.37476 9.95825Z" fill="#18191A"/>
<path fill-rule="evenodd" clip-rule="evenodd" d="M5.37476 19.9583C5.37476 19.2679 5.9344 18.7083 6.62476 18.7083H33.2914C33.9818 18.7083 34.5414 19.2679 34.5414 19.9583C34.5414 20.6486 33.9818 21.2083 33.2914 21.2083H6.62476C5.9344 21.2083 5.37476 20.6486 5.37476 19.9583Z" fill="#18191A"/>
<path fill-rule="evenodd" clip-rule="evenodd" d="M5.37476 29.9583C5.37476 29.2679 5.9344 28.7083 6.62476 28.7083H33.2914C33.9818 28.7083 34.5414 29.2679 34.5414 29.9583C34.5414 30.6486 33.9818 31.2083 33.2914 31.2083H6.62476C5.9344 31.2083 5.37476 30.6486 5.37476 29.9583Z" fill="#18191A"/>
</svg>
