<svg width="44" height="44" viewBox="0 0 44 44" fill="none" xmlns="http://www.w3.org/2000/svg">
<path d="M22.0001 42.5C33.322 42.5 42.5001 33.3218 42.5001 22C42.5001 10.6782 33.322 1.5 22.0001 1.5C10.6783 1.5 1.50012 10.6782 1.50012 22C1.50012 33.3218 10.6783 42.5 22.0001 42.5Z" fill="#E8E8E8"/>
<path d="M22.0001 42.5C33.322 42.5 42.5001 33.3218 42.5001 22C42.5001 10.6782 33.322 1.5 22.0001 1.5C10.6783 1.5 1.50012 10.6782 1.50012 22C1.50012 33.3218 10.6783 42.5 22.0001 42.5Z" stroke="#002D72" stroke-width="1.07143"/>
<path fill-rule="evenodd" clip-rule="evenodd" d="M30.7072 26.0406C31.0977 25.6501 31.0977 25.0169 30.7072 24.6264L22.7072 16.6264C22.3167 16.2359 21.6835 16.2359 21.293 16.6264L13.293 24.6264C12.9025 25.0169 12.9025 25.6501 13.293 26.0406C13.6835 26.4311 14.3167 26.4311 14.7072 26.0406L22.0001 18.7477L29.293 26.0406C29.6835 26.4311 30.3167 26.4311 30.7072 26.0406Z" fill="#002D72"/>
</svg>
