<svg width="24" height="24" viewBox="0 0 24 24" fill="none" xmlns="http://www.w3.org/2000/svg">
<path fill-rule="evenodd" clip-rule="evenodd" d="M3.75 9.5C3.75 4.94364 7.44364 1.25 12 1.25C16.5564 1.25 20.25 4.94364 20.25 9.5C20.25 13.0158 18.2365 16.3116 16.3326 18.6599C15.3691 19.8482 14.4074 20.8257 13.6868 21.5062C13.3261 21.8469 13.0246 22.1143 12.8119 22.2976C12.7055 22.3893 12.6213 22.46 12.5629 22.5085C12.5336 22.5327 12.5108 22.5513 12.495 22.5643L12.4764 22.5793L12.4711 22.5836L12.4695 22.5849L12.4689 22.5853C12.4687 22.5855 12.4685 22.5857 12 22C11.5315 22.5857 11.5313 22.5855 11.5311 22.5853L11.5305 22.5849L11.5289 22.5836L11.5236 22.5793L11.505 22.5643C11.4892 22.5513 11.4664 22.5327 11.4371 22.5085C11.3787 22.46 11.2945 22.3893 11.1881 22.2976C10.9754 22.1143 10.6739 21.8469 10.3132 21.5062C9.59262 20.8257 8.63093 19.8482 7.66743 18.6599C5.76347 16.3116 3.75 13.0158 3.75 9.5ZM12 22L11.5315 22.5857C11.8054 22.8048 12.1946 22.8048 12.4685 22.5857L12 22ZM12 21.0155C12.1788 20.8581 12.4018 20.6567 12.6569 20.4157C13.3426 19.7681 14.2559 18.8393 15.1674 17.7151C17.0135 15.4384 18.75 12.4842 18.75 9.5C18.75 5.77206 15.7279 2.75 12 2.75C8.27206 2.75 5.25 5.77206 5.25 9.5C5.25 12.4842 6.98653 15.4384 8.83257 17.7151C9.74407 18.8393 10.6574 19.7681 11.3431 20.4157C11.5982 20.6567 11.8212 20.8581 12 21.0155Z" fill="white"/>
<path fill-rule="evenodd" clip-rule="evenodd" d="M8.25 9.5C8.25 7.42894 9.92894 5.75 12 5.75C14.0711 5.75 15.75 7.42894 15.75 9.5C15.75 11.5711 14.0711 13.25 12 13.25C9.92894 13.25 8.25 11.5711 8.25 9.5ZM12 7.25C10.7574 7.25 9.75 8.25736 9.75 9.5C9.75 10.7426 10.7574 11.75 12 11.75C13.2426 11.75 14.25 10.7426 14.25 9.5C14.25 8.25736 13.2426 7.25 12 7.25Z" fill="white"/>
</svg>
