<svg width="222" height="29" viewBox="0 0 222 29" fill="none" xmlns="http://www.w3.org/2000/svg">
<g clip-path="url(#clip0_610_5403)">
<path d="M51.8317 22.3112H39.1675V8.94434H51.8317V10.756H41.1515V14.6385H51.4588V16.4501H41.1515V20.4996H51.8317V22.3112Z" fill="#4B6DA3"/>
<path d="M71.3768 18.4144C71.3768 21.0194 69.9697 22.3218 67.1554 22.3218H56.5457V8.94434H66.7052C67.9892 8.94434 68.9953 9.24627 69.7164 9.85014C70.5091 10.499 70.9043 11.4617 70.9019 12.7381C70.9019 14.0832 70.4001 14.944 69.3963 15.3205C70.0282 15.5077 70.5624 15.9375 70.8843 16.5176C71.2215 17.0907 71.3922 17.748 71.3768 18.4144ZM68.9144 12.731C68.9144 11.4096 68.1721 10.7488 66.6876 10.7488H58.5262V14.5284H66.6946C67.2461 14.5637 67.7962 14.4406 68.2811 14.1731C68.4999 14.0086 68.6735 13.7905 68.7855 13.5394C68.8975 13.2883 68.9443 13.0125 68.9214 12.7381L68.9144 12.731ZM69.3893 18.4144C69.4069 18.1264 69.3598 17.8381 69.2513 17.5711C69.1429 17.3041 68.976 17.0654 68.7631 16.8728C68.3052 16.5005 67.7286 16.3098 67.1414 16.3364H58.5262V20.4889H67.1484C68.647 20.496 69.3963 19.8081 69.3963 18.4251L69.3893 18.4144Z" fill="#4B6DA3"/>
<path d="M90.936 13.2176C90.936 14.5272 90.6252 15.5478 90.0037 16.2796C89.3494 17.054 88.3797 17.4412 87.0945 17.4412H78.3597V22.3112H76.3792V8.94434H87.1789C89.6836 8.94434 90.936 10.3688 90.936 13.2176ZM88.9554 13.2176C88.9554 11.5836 88.3292 10.7654 87.0769 10.7631H78.3597V15.6295H87.0945C88.3375 15.6295 88.9578 14.8232 88.9554 13.2105V13.2176Z" fill="#4B6DA3"/>
<path d="M111.575 15.6475C111.575 17.8119 111.473 19.2328 111.269 19.9101C110.896 21.1652 109.768 21.9621 107.885 22.3007C106.403 22.4795 104.909 22.5483 103.417 22.5067C101.924 22.546 100.43 22.4772 98.9461 22.3007C97.0511 21.9479 95.9172 21.1569 95.5443 19.9279C95.3403 19.2672 95.2383 17.8463 95.2383 15.6652C95.2383 13.4842 95.3403 12.0633 95.5443 11.4026C95.9172 10.1523 97.0453 9.35539 98.9285 9.01201C100.417 8.82095 101.918 8.74613 103.417 8.78823C104.909 8.74822 106.403 8.81707 107.885 8.99425C109.761 9.34473 110.889 10.1428 111.269 11.3884C111.473 12.0397 111.575 13.4593 111.575 15.6475ZM109.595 15.6475C109.595 13.1823 109.335 11.7342 108.817 11.3032C108.254 10.813 106.451 10.5679 103.407 10.5679C102.098 10.5343 100.789 10.5746 99.4843 10.6886C98.5732 10.8236 97.9681 11.2286 97.6691 11.8964C97.3701 12.5642 97.2188 13.8181 97.2188 15.6475C97.2188 17.4769 97.3736 18.6739 97.6832 19.3418C97.9927 20.0096 98.6048 20.4074 99.5195 20.5708C100.812 20.682 102.11 20.7212 103.407 20.688C104.703 20.7196 106.001 20.6852 107.294 20.585C108.209 20.4382 108.821 20.0321 109.13 19.3666C109.44 18.7012 109.595 17.4615 109.595 15.6475Z" fill="#4B6DA3"/>
<path d="M129.098 10.756H123.174V22.3112H121.193V10.756H115.269V8.94434H129.098V10.756Z" fill="#4B6DA3"/>
<path d="M145.234 22.3112H132.57V8.94434H145.234V10.756H134.554V14.6385H144.861V16.4501H134.554V20.4996H145.234V22.3112Z" fill="#4B6DA3"/>
<path d="M165.62 22.3112H163.002L157.342 16.6277L151.682 22.3112H149.065L155.865 15.6295L149.075 8.94434H151.816L157.353 14.5888L162.89 8.94434H165.63L158.841 15.6295L165.62 22.3112Z" fill="#4B6DA3"/>
<path d="M185.368 22.3112H182.111L173.359 16.1588H171.396V22.3112H169.415V8.94434H171.396V14.3508H173.359L181.365 8.94789H184.781L175.483 15.2388L185.368 22.3112Z" fill="#4B6DA3"/>
<path d="M205.273 22.3112H203.032L201.477 19.3239H192.035L190.48 22.297H188.229L195.184 8.93018H198.269L205.273 22.3112ZM200.615 17.5762L197.023 10.5358H196.541L192.929 17.5726L200.615 17.5762Z" fill="#4B6DA3"/>
<path d="M222 10.756H216.076V22.3112H214.096V10.756H208.172V8.94434H222V10.756Z" fill="#4B6DA3"/>
<path d="M31.1117 0H0V29H31.1117V0Z" fill="#4B6DA3"/>
<path d="M27.7097 1.01196H3.40151C2.12117 1.01196 1.08325 2.06001 1.08325 3.35285V25.6499C1.08325 26.9427 2.12117 27.9908 3.40151 27.9908H27.7097C28.9901 27.9908 30.028 26.9427 30.028 25.6499V3.35285C30.028 2.06001 28.9901 1.01196 27.7097 1.01196Z" fill="white" stroke="#4B6DA3" stroke-width="0.95" stroke-linecap="round" stroke-linejoin="round"/>
<path d="M8.11592 12.6526C8.47462 11.5073 9.09389 10.4627 9.92416 9.60253C10.7544 8.74231 11.7726 8.09033 12.8972 7.6988C14.0218 7.30727 15.2216 7.18706 16.4005 7.34779C17.5794 7.50852 18.7046 7.94573 19.6861 8.62442C20.1983 8.0904 20.6611 7.51016 21.0686 6.89095C19.7867 5.97366 18.3055 5.3803 16.7494 5.16067C15.1934 4.94105 13.6079 5.10158 12.126 5.62878C10.6441 6.15599 9.30908 7.03448 8.23303 8.19052C7.15697 9.34655 6.37128 10.7464 5.94189 12.2725L6.92689 12.4643C7.3244 12.5425 7.72544 12.6064 8.11592 12.6526Z" fill="#4B6DA3"/>
<path d="M23.4847 4.23047C23.5093 5.10786 23.045 6.4044 22.1303 7.78265C21.7169 8.3984 21.2533 8.97824 20.7443 9.51611C14.3418 15.0611 7.2499 14.1766 5.6528 13.5656C5.58458 14.0361 5.55048 14.511 5.55078 14.9865C5.55028 16.0664 5.72497 17.1392 6.06791 18.1621C6.85289 18.2176 7.64098 18.2104 8.42485 18.1408C13.9936 17.7856 19.2598 14.9438 21.8595 10.9441C22.3153 10.246 22.6906 9.49751 22.9781 8.71332C23.5059 7.28297 23.6798 5.74411 23.4847 4.23047Z" fill="#4B6DA3"/>
<path d="M8.56945 22.1088C11.8199 21.7536 17.5153 20.0379 21.9091 14.2514C22.3436 13.5491 22.719 12.8112 23.0313 12.0455C23.1649 11.7222 23.2775 11.4061 23.3831 11.1006C23.1353 11.5319 22.8628 11.9482 22.5669 12.3474C22.3453 12.6458 22.1131 12.9371 21.8634 13.2283C18.8908 16.6633 14.1628 18.9545 9.19915 19.4482C8.5589 19.5121 7.91865 19.5441 7.27489 19.5477H6.67334C7.16672 20.4976 7.80677 21.3621 8.56945 22.1088Z" fill="#4B6DA3"/>
<path d="M24.2763 10.7559C24.3139 11.4596 24.2809 12.1653 24.1778 12.8623C24.0463 13.7818 23.8103 14.6829 23.4742 15.5477C21.9862 19.3237 18.6689 22.7196 14.5178 24.858C14.8028 24.8829 15.0947 24.8971 15.3902 24.8971C17.9935 24.8896 20.4879 23.8418 22.3283 21.9827C24.1688 20.1237 25.2055 17.6045 25.212 14.9758C25.2145 13.5165 24.8948 12.0749 24.2763 10.7559Z" fill="#4B6DA3"/>
</g>
<defs>
<clipPath id="clip0_610_5403">
<rect width="222" height="29" fill="white"/>
</clipPath>
</defs>
</svg>
