<svg width="87" height="86" viewBox="0 0 87 86" fill="none" xmlns="http://www.w3.org/2000/svg">
<path fill-rule="evenodd" clip-rule="evenodd" d="M15.729 10.75C15.729 9.26573 16.9322 8.0625 18.4165 8.0625H68.5832C70.0674 8.0625 71.2707 9.26573 71.2707 10.75V75.25C71.2707 76.7343 70.0674 77.9375 68.5832 77.9375H18.4165C16.9322 77.9375 15.729 76.7343 15.729 75.25V10.75ZM21.104 13.4375V72.5625H65.8957V13.4375H21.104Z" fill="white"/>
<path fill-rule="evenodd" clip-rule="evenodd" d="M42.7775 29.5814C43.7357 29.4673 44.6815 29.8757 45.2555 30.6513C46.2521 31.9979 47.7805 34.2864 49.2195 36.6573C50.6352 38.9899 52.0844 41.597 52.8197 43.529L52.8198 43.5291C54.0365 46.7263 53.0503 50.02 51.2213 52.3543C49.3874 54.6948 46.4442 56.4375 43.0953 56.4375C39.4252 56.4375 36.445 53.9356 34.9241 51.1382C33.3812 48.3003 32.9179 44.3641 35.347 41.1728M42.7775 29.5814C41.8193 29.6955 40.9959 30.3145 40.62 31.2033ZM43.5762 37.7586C42.515 39.948 41.1781 42.3864 39.6241 44.4281L39.624 44.4282C38.8476 45.4482 38.785 46.9867 39.6463 48.5708C40.5296 50.1954 41.957 51.0625 43.0953 51.0625C44.5548 51.0625 46.0193 50.2784 46.9904 49.0392C47.9661 47.7939 48.1822 46.4551 47.7963 45.441M43.5762 37.7586C43.9226 38.3038 44.2754 38.8708 44.6246 39.4461C46.027 41.7568 47.2492 44.0038 47.7962 45.4408M40.62 31.2033C39.5293 33.7826 37.6727 38.1172 35.3471 41.1727Z" fill="white"/>
<path fill-rule="evenodd" clip-rule="evenodd" d="M8.5625 10.75C8.5625 9.26573 9.76573 8.0625 11.25 8.0625H75.75C77.2343 8.0625 78.4375 9.26573 78.4375 10.75C78.4375 12.2343 77.2343 13.4375 75.75 13.4375H11.25C9.76573 13.4375 8.5625 12.2343 8.5625 10.75Z" fill="white"/>
<path fill-rule="evenodd" clip-rule="evenodd" d="M8.5625 75.25C8.5625 73.7657 9.76573 72.5625 11.25 72.5625H75.75C77.2343 72.5625 78.4375 73.7657 78.4375 75.25C78.4375 76.7343 77.2343 77.9375 75.75 77.9375H11.25C9.76573 77.9375 8.5625 76.7343 8.5625 75.25Z" fill="white"/>
<path fill-rule="evenodd" clip-rule="evenodd" d="M8.5625 43C8.5625 41.5157 9.76573 40.3125 11.25 40.3125H18.4167C19.9009 40.3125 21.1042 41.5157 21.1042 43C21.1042 44.4843 19.9009 45.6875 18.4167 45.6875H11.25C9.76573 45.6875 8.5625 44.4843 8.5625 43Z" fill="white"/>
<path fill-rule="evenodd" clip-rule="evenodd" d="M65.896 43C65.896 41.5157 67.0992 40.3125 68.5835 40.3125H75.7502C77.2344 40.3125 78.4377 41.5157 78.4377 43C78.4377 44.4843 77.2344 45.6875 75.7502 45.6875H68.5835C67.0992 45.6875 65.896 44.4843 65.896 43Z" fill="white"/>
</svg>
