<svg width="72" height="72" viewBox="0 0 72 72" fill="none" xmlns="http://www.w3.org/2000/svg">
<path fill-rule="evenodd" clip-rule="evenodd" d="M23.25 19.5C23.25 12.4584 28.9584 6.75 36 6.75C43.0416 6.75 48.75 12.4584 48.75 19.5C48.75 26.5416 43.0416 32.25 36 32.25C28.9584 32.25 23.25 26.5416 23.25 19.5ZM36 11.25C31.4436 11.25 27.75 14.9437 27.75 19.5C27.75 24.0564 31.4436 27.75 36 27.75C40.5564 27.75 44.25 24.0564 44.25 19.5C44.25 14.9437 40.5564 11.25 36 11.25Z" fill="#002D72"/>
<path fill-rule="evenodd" clip-rule="evenodd" d="M19.8454 9.59457C20.5563 10.6138 20.3064 12.0163 19.2872 12.7272C17.1444 14.2219 15.75 16.6981 15.75 19.4998C15.75 22.4981 17.3482 25.1254 19.7499 26.5726C20.8142 27.2139 21.1571 28.5967 20.5158 29.661C19.8744 30.7254 18.4917 31.0683 17.4273 30.4269C13.7306 28.1994 11.25 24.1403 11.25 19.4998C11.25 15.1651 13.4151 11.3365 16.7128 9.03637C17.732 8.32546 19.1345 8.57538 19.8454 9.59457Z" fill="#002D72"/>
<path fill-rule="evenodd" clip-rule="evenodd" d="M52.1548 9.59457C52.8657 8.57538 54.2682 8.32546 55.2874 9.03637C58.5851 11.3365 60.7502 15.1651 60.7502 19.4998C60.7502 23.8343 58.5851 27.663 55.2874 29.9632C54.2682 30.6741 52.8656 30.4241 52.1548 29.4049C51.4439 28.3857 51.6938 26.9832 52.713 26.2723C54.8558 24.7777 56.2502 22.3013 56.2502 19.4998C56.2502 16.6981 54.8558 14.2219 52.713 12.7272C51.6938 12.0163 51.4439 10.6138 52.1548 9.59457Z" fill="#002D72"/>
<path fill-rule="evenodd" clip-rule="evenodd" d="M35.9178 39.75H36.0822C38.8082 39.75 40.9687 39.75 42.719 39.8694C44.5071 39.9914 46.0308 40.2455 47.4533 40.8348C50.9449 42.281 53.719 45.0551 55.1652 48.5467C55.7545 49.9692 56.0086 51.4929 56.1306 53.281C56.25 55.0313 56.25 57.1918 56.25 59.9179V63C56.25 64.2426 55.2426 65.25 54 65.25H18C16.7574 65.25 15.75 64.2426 15.75 63L15.75 59.9179C15.75 57.1918 15.75 55.0313 15.8694 53.281C15.9914 51.4929 16.2455 49.9692 16.8348 48.5467C18.281 45.0551 21.0551 42.281 24.5467 40.8348M35.9178 39.75C33.1918 39.75 31.0313 39.75 29.281 39.8694ZM29.281 39.8694C27.4929 39.9914 25.9692 40.2456 24.5467 40.8348ZM29.5873 44.359C28.0284 44.4653 27.0516 44.668 26.2688 44.9922C23.8799 45.9817 21.9817 47.8798 20.9922 50.2688C20.668 51.0515 20.4653 52.0284 20.359 53.5873C20.2512 55.1665 20.25 57.1736 20.25 60V60.75H51.75V60C51.75 57.1736 51.7488 55.1665 51.641 53.5873C51.5347 52.0284 51.332 51.0516 51.0078 50.2688C50.0183 47.8799 48.1202 45.9817 45.7313 44.9922C44.9485 44.668 43.9716 44.4653 42.4127 44.359C40.8336 44.2512 38.8264 44.25 36 44.25C33.1736 44.25 31.1665 44.2512 29.5873 44.359Z" fill="#18191A"/>
<path fill-rule="evenodd" clip-rule="evenodd" d="M57.4427 42.2864C58.0069 41.1792 59.3618 40.7389 60.469 41.3031C63.1503 42.6693 65.3303 44.8494 66.6966 47.5307C67.539 49.1842 67.9038 50.9951 68.0787 53.1352C68.2497 55.2281 68.2497 57.8246 68.2497 61.1011V63C68.2497 64.2426 67.2423 65.25 65.9997 65.25C64.757 65.25 63.7497 64.2426 63.7497 63V61.2C63.7497 57.8026 63.7479 55.3898 63.5936 53.5017C63.4415 51.6398 63.1524 50.4871 62.687 49.5736M57.4427 42.2864C56.8786 43.3936 57.3188 44.7485 58.426 45.3126ZM58.426 45.3126C59.3699 45.7935 60.223 46.4219 60.9562 47.1685C61.6481 47.8731 62.2332 48.6829 62.687 49.5736" fill="#18191A"/>
<path d="M60.9562 47.1685L57.4427 42.2864L58.426 45.3126C59.3699 45.7935 60.223 46.4219 60.9562 47.1685Z" fill="#18191A"/>
<path fill-rule="evenodd" clip-rule="evenodd" d="M14.5569 42.2864C15.121 43.3936 14.6808 44.7485 13.5736 45.3126C11.739 46.2474 10.2475 47.739 9.31269 49.5736C8.84728 50.487 8.55814 51.6398 8.40602 53.5017C8.25175 55.3898 8.25 57.8026 8.25 61.2V63C8.25 64.2426 7.24264 65.25 6 65.25C4.75736 65.25 3.75 64.2426 3.75 63L3.75 61.101C3.74998 57.8246 3.74997 55.2281 3.92096 53.1352C4.09582 50.9951 4.46065 49.1842 5.30316 47.5307C6.66933 44.8494 8.8493 42.6693 11.5306 41.3031C12.6378 40.7389 13.9927 41.1792 14.5569 42.2864Z" fill="#18191A"/>
</svg>
