<svg width="18" height="18" viewBox="0 0 18 18" fill="none" xmlns="http://www.w3.org/2000/svg">
<path fill-rule="evenodd" clip-rule="evenodd" d="M3.08515 1.49917C2.27898 1.49917 1.7761 2.22156 2.00641 2.90411C2.83218 5.35138 4.371 9.03294 6.66583 11.3278C8.96066 13.6226 12.6422 15.1614 15.0895 15.9872C15.772 16.2175 16.4944 15.7147 16.4944 14.9084V12.4235C16.4944 12.3346 16.4463 12.2527 16.3685 12.2094L14.204 11.006C14.1333 10.9667 14.0478 10.9648 13.9755 11.001L11.6671 12.1552C11.5227 12.2274 11.3586 12.25 11.2001 12.2196L11.3385 11.498C11.2001 12.2196 11.2004 12.2196 11.2001 12.2196L11.198 12.2192L11.1953 12.2186L11.1879 12.2172L11.1657 12.2126C11.1477 12.2087 11.1234 12.2033 11.0931 12.1962C11.0327 12.1819 10.9487 12.1606 10.8451 12.1307C10.6382 12.071 10.3515 11.9765 10.0184 11.8346C9.35504 11.5519 8.4891 11.073 7.70483 10.2888C6.92069 9.50464 6.4405 8.63744 6.15649 7.97311C6.01385 7.63947 5.91868 7.3523 5.85843 7.14508C5.82826 7.04131 5.80672 6.95712 5.79227 6.89662C5.78505 6.86636 5.77959 6.84198 5.7757 6.82399L5.77104 6.80185L5.76955 6.79448L5.769 6.79174L5.76878 6.79061C5.76873 6.79037 5.76859 6.78964 6.48977 6.64936L5.76878 6.79061C5.73784 6.63154 5.76017 6.46574 5.83264 6.3208L6.98699 4.01205C7.02311 3.93982 7.02131 3.85431 6.98207 3.78363L5.78386 1.62524C5.78386 1.62523 5.78387 1.62526 5.78386 1.62524C5.74064 1.54743 5.65864 1.49917 5.56974 1.49917H3.08515ZM7.26904 6.73364C7.26916 6.73404 7.26928 6.73445 7.2694 6.73486C7.31563 6.89386 7.39159 7.12416 7.50759 7.39549C7.74084 7.9411 8.12795 8.63386 8.74383 9.24975C8.74383 9.24974 8.74383 9.24975 8.74383 9.24975L8.22433 9.76926M8.74383 9.24975C9.35965 9.86554 10.0508 10.2511 10.5945 10.4828C10.8649 10.598 11.0943 10.6732 11.2525 10.7189C11.2522 10.7188 11.2528 10.719 11.2525 10.7189L13.3183 9.68678C13.3182 9.68679 13.3183 9.68678 13.3183 9.68678C13.8246 9.4336 14.4233 9.44671 14.918 9.72175L17.0825 10.9252C17.6265 11.2276 17.9638 11.8011 17.9638 12.4235V14.9084C17.9638 16.6332 16.3353 17.9584 14.6197 17.3794C12.1417 16.5433 8.17782 14.9178 5.62682 12.3668C3.0758 9.81576 1.45028 5.8519 0.614137 3.37389C0.0352753 1.6583 1.3604 0.0297852 3.08515 0.0297852H5.56974C6.19249 0.0297852 6.76624 0.367534 7.06852 0.91197L8.26678 3.07045C8.5413 3.56497 8.55428 4.16316 8.30125 4.66917C8.30124 4.66919 8.30126 4.66915 8.30125 4.66917L7.26904 6.73364" fill="white"/>
</svg>
