<svg width="24" height="24" viewBox="0 0 24 24" fill="none" xmlns="http://www.w3.org/2000/svg">
<path fill-rule="evenodd" clip-rule="evenodd" d="M6.08515 4.49917C5.27898 4.49917 4.7761 5.22156 5.00641 5.90411C5.83218 8.35138 7.371 12.0329 9.66583 14.3278C11.9607 16.6226 15.6422 18.1614 18.0895 18.9872C18.772 19.2175 19.4944 18.7147 19.4944 17.9084V15.4235C19.4944 15.3346 19.4463 15.2527 19.3685 15.2094L17.204 14.006C17.1333 13.9667 17.0478 13.9648 16.9755 14.001L14.6671 15.1552C14.5227 15.2274 14.3586 15.25 14.2001 15.2196L14.3385 14.498C14.2001 15.2196 14.2004 15.2196 14.2001 15.2196L14.198 15.2192L14.1953 15.2186L14.1879 15.2172L14.1657 15.2126C14.1477 15.2087 14.1234 15.2033 14.0931 15.1962C14.0327 15.1819 13.9487 15.1606 13.8451 15.1307C13.6382 15.071 13.3515 14.9765 13.0184 14.8346C12.355 14.5519 11.4891 14.073 10.7048 13.2888C9.92069 12.5046 9.4405 11.6374 9.15649 10.9731C9.01385 10.6395 8.91868 10.3523 8.85843 10.1451C8.82826 10.0413 8.80672 9.95712 8.79227 9.89662C8.78505 9.86636 8.77959 9.84198 8.7757 9.82399L8.77104 9.80185L8.76955 9.79448L8.769 9.79174L8.76878 9.79061C8.76873 9.79037 8.76859 9.78964 9.48977 9.64936L8.76878 9.79061C8.73784 9.63154 8.76017 9.46574 8.83264 9.3208L9.98699 7.01205C10.0231 6.93982 10.0213 6.85431 9.98207 6.78363L8.78386 4.62524C8.78386 4.62523 8.78387 4.62526 8.78386 4.62524C8.74064 4.54743 8.65864 4.49917 8.56974 4.49917H6.08515ZM10.269 9.73364C10.2692 9.73404 10.2693 9.73445 10.2694 9.73486C10.3156 9.89386 10.3916 10.1242 10.5076 10.3955C10.7408 10.9411 11.1279 11.6339 11.7438 12.2497C11.7438 12.2497 11.7438 12.2498 11.7438 12.2497L11.2243 12.7693M11.7438 12.2497C12.3596 12.8655 13.0508 13.2511 13.5945 13.4828C13.8649 13.598 14.0943 13.6732 14.2525 13.7189C14.2522 13.7188 14.2528 13.719 14.2525 13.7189L16.3183 12.6868C16.3182 12.6868 16.3183 12.6868 16.3183 12.6868C16.8246 12.4336 17.4233 12.4467 17.918 12.7217L20.0825 13.9252C20.6265 14.2276 20.9638 14.8011 20.9638 15.4235V17.9084C20.9638 19.6332 19.3353 20.9584 17.6197 20.3794C15.1417 19.5433 11.1778 17.9178 8.62682 15.3668C6.0758 12.8158 4.45028 8.8519 3.61414 6.37389C3.03528 4.6583 4.3604 3.02979 6.08515 3.02979H8.56974C9.19249 3.02979 9.76624 3.36753 10.0685 3.91197L11.2668 6.07045C11.5413 6.56497 11.5543 7.16316 11.3013 7.66917C11.3012 7.66919 11.3013 7.66915 11.3013 7.66917L10.269 9.73364" fill="#18191A"/>
</svg>
