<svg width="72" height="72" viewBox="0 0 72 72" fill="none" xmlns="http://www.w3.org/2000/svg">
<path fill-rule="evenodd" clip-rule="evenodd" d="M54.9694 62.1866C46.3611 60.0982 39.4765 59.1993 34.2483 59.4005L34.2482 59.4005C29.0563 59.6002 23.4421 60.9658 17.3882 63.5673C16.2465 64.0579 14.9232 63.5301 14.4326 62.3884C13.942 61.2467 14.4698 59.9235 15.6115 59.4329C22.0598 56.6619 28.22 55.129 34.0752 54.9038L34.1617 57.1522L34.0752 54.9038C39.8942 54.6799 47.235 55.6797 56.0303 57.8135C57.2379 58.1065 57.9794 59.3229 57.6864 60.5306C57.3934 61.7382 56.177 62.4796 54.9694 62.1866Z" fill="#18191A"/>
<path fill-rule="evenodd" clip-rule="evenodd" d="M36.5831 30.8268C37.7832 31.149 38.4949 32.3831 38.1727 33.5833C36.1669 41.0538 35.6678 51.7519 36.8105 65.8176C36.9112 67.0562 35.9887 68.1418 34.7501 68.2424C33.5115 68.3431 32.4259 67.4206 32.3253 66.182C31.1673 51.9275 31.6225 40.6256 33.8266 32.4164C34.1489 31.2162 35.383 30.5046 36.5831 30.8268Z" fill="#18191A"/>
<path fill-rule="evenodd" clip-rule="evenodd" d="M63.7172 22.3033C59.0063 19.8191 54.214 19.3323 49.2242 20.7757L49.2241 20.7757C44.6039 22.1121 40.9415 26.132 38.6152 33.7877C44.7818 37.6028 50.2685 37.8771 55.3855 35.1474L55.3856 35.1473C58.2806 33.603 60.3457 31.6738 61.6964 29.3941C62.8699 27.4136 63.5633 25.0689 63.7172 22.3033ZM47.9737 16.4529C54.6127 14.5324 61.0548 15.4344 67.153 19.074C67.8306 19.4784 68.2468 20.2083 68.2498 20.9974C68.2652 25.0012 67.4014 28.5936 65.5679 31.688C63.7335 34.7839 61.0069 37.249 57.5035 39.1178L56.4445 37.1326L57.5035 39.1178C50.1906 43.0189 42.4695 41.9643 34.7219 36.6157C33.9413 36.0768 33.5825 35.1063 33.8248 34.1893C36.3044 24.8045 40.8684 18.5081 47.9737 16.4529Z" fill="#002D72"/>
<path fill-rule="evenodd" clip-rule="evenodd" d="M5.78821 5.28464C14.5936 2.67869 22.5724 3.70028 29.4682 8.55309L29.4682 8.55311C36.669 13.6207 39.2233 22.2161 37.9229 33.4305C37.8212 34.307 37.2166 35.0433 36.3765 35.3133C26.5763 38.4637 18.1338 37.4459 11.545 31.6953L13.0245 30.0001L11.545 31.6953C4.96363 25.9512 2.68843 17.5672 4.19991 7.11997C4.32568 6.2506 4.9459 5.53392 5.78821 5.28464ZM8.46842 9.217C7.51692 17.8925 9.67628 24.0914 14.504 28.305C19.3149 32.5038 25.5404 33.7116 33.6002 31.4507C34.4107 21.9411 31.9423 15.7969 26.8784 12.2332C21.6005 8.51894 15.5346 7.45743 8.46842 9.217Z" fill="#002D72"/>
</svg>
