<svg width="16" height="17" viewBox="0 0 16 17" fill="none" xmlns="http://www.w3.org/2000/svg">
<path fill-rule="evenodd" clip-rule="evenodd" d="M0.833252 7.49992C0.833252 4.09418 3.59418 1.33325 6.99992 1.33325C10.4057 1.33325 13.1666 4.09418 13.1666 7.49992C13.1666 10.9057 10.4057 13.6666 6.99992 13.6666C3.59418 13.6666 0.833252 10.9057 0.833252 7.49992ZM6.99992 2.33325C4.14646 2.33325 1.83325 4.64646 1.83325 7.49992C1.83325 10.3534 4.14646 12.6666 6.99992 12.6666C9.85338 12.6666 12.1666 10.3534 12.1666 7.49992C12.1666 4.64646 9.85338 2.33325 6.99992 2.33325Z" fill="#A0A0A0"/>
<path fill-rule="evenodd" clip-rule="evenodd" d="M10.7204 11.2204C10.9157 11.0252 11.2323 11.0252 11.4275 11.2204L14.256 14.0489C14.4512 14.2441 14.4512 14.5607 14.256 14.756C14.0607 14.9512 13.7441 14.9512 13.5489 14.756L10.7204 11.9275C10.5252 11.7323 10.5252 11.4157 10.7204 11.2204Z" fill="#A0A0A0"/>
</svg>
