<svg width="50" height="50" viewBox="0 0 50 50" fill="none" xmlns="http://www.w3.org/2000/svg">
<circle cx="25" cy="25" r="24.25" stroke="white" stroke-width="1.5"/>
<path d="M36.5361 17.4944C36.7021 16.8445 36.5361 16.3662 35.7373 16.3662H33.094C32.4209 16.3662 32.1112 16.7769 31.9452 17.2345C31.9452 17.2345 30.5988 21.035 28.6961 23.4994C28.0813 24.2117 27.7985 24.4405 27.462 24.4405C27.2959 24.4405 27.0401 24.2117 27.0401 23.5618V17.4944C27.0401 16.7146 26.8516 16.3662 26.2951 16.3662H22.1395C21.7177 16.3662 21.4664 16.7301 21.4664 17.0681C21.4664 17.8064 22.4178 17.9779 22.5165 20.0576V24.5704C22.5165 25.5583 22.3639 25.7402 22.0274 25.7402C21.1298 25.7402 18.9488 21.9241 17.6563 17.5568C17.396 16.7094 17.1403 16.3662 16.4626 16.3662H13.8194C13.0654 16.3662 12.9128 16.7769 12.9128 17.2345C12.9128 18.0455 13.8104 22.0749 17.0909 27.3988C19.2764 31.0329 22.355 33.0034 25.1553 33.0034C26.8382 33.0034 27.0446 32.5667 27.0446 31.8128C27.0446 28.3398 26.892 28.0122 27.7357 28.0122C28.1261 28.0122 28.7993 28.241 30.37 29.9931C32.1651 32.0728 32.4612 33.0034 33.4665 33.0034H36.1097C36.8637 33.0034 37.2451 32.5667 37.0252 31.7036C36.5226 29.8891 33.1254 26.1562 32.9728 25.9066C32.5824 25.3243 32.6946 25.0643 32.9728 24.5444C32.9773 24.5392 36.204 19.2777 36.5361 17.4944Z" fill="white"/>
</svg>
