<svg width="50" height="50" viewBox="0 0 50 50" fill="none" xmlns="http://www.w3.org/2000/svg">
<circle cx="25" cy="25" r="24.25" stroke="white" stroke-width="1.5"/>
<path d="M35.9176 18.0995C32.0768 12.1619 24.2353 10.3967 18.154 14.0876C12.2329 17.7785 10.3125 25.8022 14.1532 31.7398L14.4733 32.2212L13.1931 37.0354L17.994 35.7516L18.4741 36.0726C20.5545 37.1959 22.795 37.8378 25.0354 37.8378C27.4359 37.8378 29.8364 37.1959 31.9168 35.9121C37.838 32.0607 39.5983 24.1975 35.9176 18.0995ZM32.5569 30.456C31.9168 31.4188 31.1166 32.0607 29.9964 32.2212C29.3563 32.2212 28.5561 32.5421 25.3555 31.2583C22.6349 29.9745 20.3945 27.8884 18.7942 25.4813C17.834 24.358 17.3539 22.9137 17.1939 21.4694C17.1939 20.1856 17.674 19.0623 18.4741 18.2599C18.7942 17.939 19.1142 17.7785 19.4343 17.7785H20.2345C20.5545 17.7785 20.8746 17.7785 21.0346 18.4204C21.3547 19.2228 22.1548 21.1485 22.1548 21.3089C22.3149 21.4694 22.3149 21.7904 22.1548 21.9508C22.3149 22.2718 22.1548 22.5927 21.9948 22.7532C21.8348 22.9137 21.6748 23.2346 21.5147 23.3951C21.1947 23.5556 21.0346 23.8765 21.1947 24.1975C21.8348 25.1603 22.6349 26.1232 23.4351 26.9255C24.3953 27.7279 25.3555 28.3698 26.4757 28.8512C26.7958 29.0117 27.1158 29.0117 27.2759 28.6908C27.4359 28.3698 28.2361 27.5674 28.5561 27.2465C28.8762 26.9255 29.0362 26.9255 29.3563 27.086L31.9168 28.3698C32.2369 28.5303 32.5569 28.6908 32.717 28.8512C32.877 29.3327 32.877 29.9745 32.5569 30.456Z" fill="white"/>
</svg>
