<svg width="72" height="72" viewBox="0 0 72 72" fill="none" xmlns="http://www.w3.org/2000/svg">
<path fill-rule="evenodd" clip-rule="evenodd" d="M24 21.75C25.2426 21.75 26.25 22.7574 26.25 24C26.25 29.3848 30.6152 33.75 36 33.75C41.3848 33.75 45.75 29.3848 45.75 24C45.75 22.7574 46.7574 21.75 48 21.75C49.2426 21.75 50.25 22.7574 50.25 24C50.25 31.8701 43.8701 38.25 36 38.25C28.1299 38.25 21.75 31.8701 21.75 24C21.75 22.7574 22.7574 21.75 24 21.75Z" fill="#002D72"/>
<path fill-rule="evenodd" clip-rule="evenodd" d="M21.75 24C21.75 16.1299 28.1299 9.75 36 9.75C43.8701 9.75 50.25 16.1299 50.25 24C50.25 25.2426 49.2426 26.25 48 26.25H24C22.7574 26.25 21.75 25.2426 21.75 24ZM26.5109 21.75H45.4891C44.4734 17.4499 40.6104 14.25 36 14.25C31.3896 14.25 27.5266 17.4499 26.5109 21.75Z" fill="#002D72"/>
<path fill-rule="evenodd" clip-rule="evenodd" d="M15.75 24C15.75 22.7574 16.7574 21.75 18 21.75H54C55.2426 21.75 56.25 22.7574 56.25 24C56.25 25.2426 55.2426 26.25 54 26.25H18C16.7574 26.25 15.75 25.2426 15.75 24Z" fill="#002D72"/>
<path fill-rule="evenodd" clip-rule="evenodd" d="M36 3.75C37.2426 3.75 38.25 4.75736 38.25 6V12C38.25 13.2426 37.2426 14.25 36 14.25C34.7574 14.25 33.75 13.2426 33.75 12V6C33.75 4.75736 34.7574 3.75 36 3.75Z" fill="#002D72"/>
<path fill-rule="evenodd" clip-rule="evenodd" d="M8.25 64.5C8.25 49.8759 20.8046 38.25 36 38.25C51.1954 38.25 63.75 49.8759 63.75 64.5C63.75 65.7426 62.7426 66.75 61.5 66.75H10.5C9.25736 66.75 8.25 65.7426 8.25 64.5ZM12.8737 62.25H59.1263C57.9264 51.3948 48.1428 42.75 36 42.75C23.8572 42.75 14.0736 51.3948 12.8737 62.25Z" fill="#18191A"/>
<path fill-rule="evenodd" clip-rule="evenodd" d="M27 48.75C28.2426 48.75 29.25 49.7574 29.25 51V57C29.25 58.2426 28.2426 59.25 27 59.25C25.7574 59.25 24.75 58.2426 24.75 57V51C24.75 49.7574 25.7574 48.75 27 48.75Z" fill="#18191A"/>
<path fill-rule="evenodd" clip-rule="evenodd" d="M45 48.75C46.2426 48.75 47.25 49.7574 47.25 51V57C47.25 58.2426 46.2426 59.25 45 59.25C43.7574 59.25 42.75 58.2426 42.75 57V51C42.75 49.7574 43.7574 48.75 45 48.75Z" fill="#18191A"/>
</svg>
